# xmcd
#
# Track frame offsets:
#	150
#	26966
#	64347
#	96290
#	126714
#	187115
#	214137
#	245866
#	271883
#
# Disc length: 4084 seconds
#
# Revision: 1
# Processed by: cddbd v1.5.2PL0 Copyright (c) Steve Scherf et al.
# Submitted via: audiograbber 1.83.01
#
DISCID=980ff209
DTITLE=Grateful Dead - 92-05-20 Cal Expo Amphitheatre, Sacrimento CA
DYEAR=1900
DGENRE=
TTITLE0=Jack Straw
TTITLE1=Bertha
TTITLE2=Walkin Blues
TTITLE3=Brown Eyed Women
TTITLE4=Desolation Row
TTITLE5=Stagger Lee
TTITLE6=Promised Land
TTITLE7=Box Of Rain
TTITLE8=Truckin
EXTD=
EXTT0=
EXTT1=
EXTT2=
EXTT3=
EXTT4=
EXTT5=
EXTT6=
EXTT7=
EXTT8=
PLAYORDER=
